# xmcd
#
# Track frame offsets:
#	150
#	11580
#	23965
#	37502
#	50111
#	61486
#	73211
#	85495
#	96617
#	109551
#	120129
#	132863
#	145819
#	155725
#	166473
#	178153
#	195869
#	211739
#	228999
#	242538
#
# Disc length: 3358 seconds
#
# Revision: 1
# Processed by: cddbd v1.5.2PL0 Copyright (c) Steve Scherf et al.
# Submitted via: audiograbber 1.83.01
#
DISCID=0e0d1c14
DTITLE=Spirit of Soul - Sprit of Soul - CD 1
DYEAR=2014
DGENRE=Soul
TTITLE0=Otis Redding - These Arms of mine
TTITLE1=James Brown - Please Please Please
TTITLE2=Etta James - At Last
TTITLE3=Dionne Warwick - Don't make me over
TTITLE4=Carla Thomas - A love of my own
TTITLE5=The Supremes with Diana Ross - Your Heart Belongs to me
TTITLE6=Ivory Joe Hunter - Since I met you baby
TTITLE7=The Hearts - I feel so good
TTITLE8=Ray Charles - Unchain my Heart
TTITLE9=Joe Tex - Blessed are these tears
TTITLE10=Gladys Knight and the Pips - Letter full of tears
TTITLE11=Mary Wells - Bye bye baby
TTITLE12=The Marvelettes - Beechwood 4-5789
TTITLE13=Benny Spellman - Lipstick Traces (on a Cigarette)
TTITLE14=Chuck Willis - It's too late
TTITLE15=Brook Benton - A rainy night in Georgia
TTITLE16=Little Stevie Wonder - Sunset
TTITLE17=Ike and Tina Turner - I've been loving you too long
TTITLE18=Ben E. King - Spanish Harlem
TTITLE19=Sam Cooke - Wonderful World
EXTD=
EXTT0=
EXTT1=
EXTT2=
EXTT3=
EXTT4=
EXTT5=
EXTT6=
EXTT7=
EXTT8=
EXTT9=
EXTT10=
EXTT11=
EXTT12=
EXTT13=
EXTT14=
EXTT15=
EXTT16=
EXTT17=
EXTT18=
EXTT19=
PLAYORDER=
